<?xml version="1.0" standalone="no"?>
<!DOCTYPE svg PUBLIC "-//W3C//DTD SVG 20010904//EN"
 "http://www.w3.org/TR/2001/REC-SVG-20010904/DTD/svg10.dtd">
<svg version="1.0" xmlns="http://www.w3.org/2000/svg"
 width="2000.000000pt" height="2000.000000pt" viewBox="0 0 2000.000000 2000.000000"
 preserveAspectRatio="xMidYMid meet">
<metadata>
Created by potrace 1.14, written by Peter Selinger 2001-2017
</metadata>
<g transform="translate(0.000000,2000.000000) scale(0.100000,-0.100000)"
fill="#000000" stroke="none">
<path d="M5869 18366 c-2 -2 -38 -6 -79 -9 -41 -4 -84 -8 -95 -11 -11 -2 -41
-6 -66 -10 -177 -26 -380 -81 -569 -154 -114 -44 -331 -149 -406 -197 -30 -19
-57 -35 -59 -35 -6 0 -120 -78 -195 -134 -164 -121 -348 -296 -483 -458 -72
-87 -193 -255 -222 -308 -11 -19 -25 -42 -32 -50 -16 -20 -153 -291 -180 -355
-78 -188 -150 -437 -178 -615 -3 -19 -7 -46 -10 -60 -15 -79 -27 -223 -29
-335 l-1 -99 5365 0 c4829 1 5506 3 5630 20 511 69 980 261 1360 557 293 229
493 455 717 812 18 29 155 303 176 352 17 41 95 262 103 293 55 216 56 222 78
370 21 139 26 192 32 318 l5 112 -5429 0 c-2986 0 -5431 -2 -5433 -4z"/>
<path d="M6167 14444 c-1 -1 -85 -4 -187 -8 -102 -3 -196 -8 -210 -10 -14 -2
-50 -7 -82 -11 -48 -6 -261 -47 -309 -59 -569 -148 -1087 -476 -1454 -919 -22
-27 -47 -57 -56 -67 -8 -10 -24 -31 -35 -46 -10 -14 -28 -38 -40 -53 -78 -100
-247 -403 -313 -561 -133 -318 -210 -683 -215 -1014 l-1 -90 5365 0 c4809 1
5518 3 5610 18 14 3 50 7 80 11 292 32 677 165 985 338 247 139 548 389 740
612 73 86 255 335 255 351 0 2 16 28 35 58 43 67 142 267 180 361 15 39 31 79
36 90 20 48 79 238 95 305 14 61 43 214 49 255 3 28 8 59 10 70 7 33 15 126
21 249 l5 116 -73 0 c-188 2 -10490 5 -10491 4z"/>
<path d="M5849 10506 c-2 -2 -31 -7 -64 -10 -124 -13 -186 -22 -275 -41 -14
-3 -34 -7 -45 -9 -121 -24 -355 -99 -485 -156 -343 -151 -593 -317 -848 -562
-107 -103 -278 -297 -306 -347 -5 -9 -12 -18 -16 -21 -27 -20 -181 -272 -249
-407 -105 -209 -218 -541 -245 -718 -4 -22 -11 -65 -16 -96 -6 -31 -13 -76
-15 -100 -3 -24 -7 -58 -9 -74 -3 -17 -7 -88 -11 -157 -4 -98 -3 -126 7 -130
24 -7 10731 -1 10838 6 58 4 116 9 130 11 14 2 48 6 75 9 28 3 73 11 100 16
28 5 61 11 75 14 118 20 382 103 525 165 106 45 299 146 386 201 72 46 274
192 289 209 3 3 26 23 52 44 71 57 242 231 324 328 74 90 199 261 228 314 9
17 31 53 48 80 172 279 327 736 363 1070 4 33 8 76 11 95 2 19 6 88 10 153 l5
117 -5439 0 c-2991 0 -5441 -2 -5443 -4z"/>
<path d="M1010 3750 l0 -1190 980 0 980 0 -2 303 -3 302 -585 0 -585 1 -3 157
-3 157 499 0 499 0 0 289 0 288 -496 0 -496 0 0 139 0 138 565 1 565 0 0 303
0 302 -957 0 -958 0 0 -1190z"/>
<path d="M10830 4580 l0 -260 -125 0 c-93 0 -125 -3 -126 -12 -4 -75 -1 -540
4 -545 4 -3 59 -6 122 -6 64 0 117 -3 120 -7 2 -4 5 -137 5 -296 1 -159 5
-307 10 -329 5 -22 11 -56 14 -75 6 -43 38 -135 61 -181 92 -178 271 -294 514
-334 102 -16 371 -14 446 5 28 6 59 13 70 16 21 4 55 16 118 42 30 13 36 20
31 36 -6 21 -168 508 -171 514 0 2 -23 -7 -50 -19 -34 -16 -68 -23 -115 -23
-80 -1 -111 17 -145 84 -22 43 -23 54 -23 306 l0 261 163 1 c89 0 174 1 188 1
l26 1 0 280 0 280 -188 0 -189 0 0 260 0 260 -380 0 -380 0 0 -260z"/>
<path d="M6523 4445 c-455 -83 -755 -370 -832 -795 -14 -78 -6 -302 13 -380
65 -267 223 -471 466 -604 120 -65 287 -117 430 -134 82 -9 326 -9 403 1 221
27 414 111 550 240 l48 45 -51 54 c-29 29 -119 121 -200 204 l-149 151 -48
-34 c-109 -79 -214 -108 -360 -101 -112 6 -187 30 -247 80 -36 29 -96 111 -96
130 0 4 288 8 640 8 l640 0 2 53 c7 251 -4 348 -57 495 -99 273 -316 468 -618
556 -47 14 -105 28 -129 31 -84 13 -332 13 -405 0z m344 -541 c72 -35 127
-105 153 -195 l9 -29 -298 0 -298 0 15 48 c45 139 161 216 312 205 30 -3 78
-16 107 -29z"/>
<path d="M9330 4453 c-58 -9 -177 -46 -229 -71 -59 -28 -147 -88 -170 -115 -7
-10 -17 -17 -21 -17 -3 0 -6 38 -6 85 l1 85 -362 0 -363 0 0 -930 0 -930 380
0 380 0 1 468 c1 257 3 474 3 482 16 174 112 284 260 295 90 7 169 -32 205
-103 37 -72 41 -141 41 -649 l0 -493 381 0 380 0 -4 623 c-2 342 -7 638 -11
657 -4 19 -21 79 -37 132 -83 263 -253 414 -532 472 -61 13 -236 18 -297 9z"/>
<path d="M13188 4439 c-335 -60 -586 -232 -730 -499 -77 -144 -109 -289 -104
-475 4 -138 4 -136 35 -250 93 -339 379 -587 773 -671 128 -28 400 -26 535 4
263 58 483 196 622 389 48 67 122 220 135 279 9 40 15 71 25 121 11 54 11 265
1 307 -4 17 -13 58 -21 91 -63 290 -285 532 -595 648 -93 35 -130 44 -269 67
-86 14 -303 8 -407 -11z m364 -609 c113 -57 171 -186 164 -365 -10 -224 -123
-349 -311 -341 -93 4 -160 38 -212 108 -90 123 -94 377 -7 508 31 46 100 97
151 110 59 14 165 5 215 -20z"/>
<path d="M17859 4456 c-2 -2 -33 -7 -67 -10 -79 -8 -255 -47 -342 -76 -80 -27
-245 -104 -254 -118 -3 -5 27 -79 68 -164 41 -84 94 -198 120 -252 l45 -97 44
30 c103 71 259 114 417 115 183 1 290 -45 331 -140 33 -78 44 -74 -193 -75
-117 0 -233 -3 -258 -5 -353 -32 -568 -157 -641 -370 -18 -54 -19 -58 -25
-154 -18 -257 122 -475 361 -565 36 -14 77 -27 92 -30 15 -2 50 -9 78 -14 67
-12 278 -7 340 9 130 33 262 128 308 220 19 41 18 45 18 -87 0 -57 4 -105 9
-108 7 -4 285 -7 593 -6 l107 1 -1 563 c0 491 -4 608 -24 702 -49 236 -190
422 -393 521 -160 77 -296 105 -548 110 -100 2 -183 2 -185 0z m391 -1220 c0
-81 -21 -131 -76 -182 -49 -45 -98 -64 -166 -64 -128 0 -212 110 -163 214 36
75 91 94 278 95 l127 1 0 -64z"/>
<path d="M3249 4398 c16 -41 522 -1312 532 -1338 6 -14 53 -131 104 -260 l93
-235 397 0 396 0 225 565 c123 311 229 574 233 585 5 11 21 52 36 90 15 39 33
84 40 100 7 17 48 118 90 225 42 107 85 216 96 243 l19 47 -361 0 -360 0 -15
-37 c-8 -21 -19 -47 -23 -58 -5 -11 -21 -51 -36 -90 -15 -38 -34 -83 -40 -100
-46 -109 -182 -457 -183 -468 -1 -4 -8 -20 -16 -35 -15 -27 -57 -135 -71 -181
-10 -34 -9 -36 -131 291 -57 156 -111 299 -119 318 -7 19 -37 98 -65 175 -28
77 -55 150 -60 163 l-10 22 -390 0 -390 0 9 -22z"/>
<path d="M14679 4373 c152 -386 214 -541 222 -558 4 -11 40 -101 79 -200 39
-99 78 -195 87 -214 8 -18 19 -45 23 -60 5 -14 76 -195 159 -401 l150 -375
396 0 395 0 134 335 c74 184 189 472 255 640 67 168 130 325 140 350 11 25 45
110 76 190 73 187 72 184 74 192 2 4 15 38 31 75 l29 68 -356 3 c-196 1 -360
-1 -364 -5 -4 -5 -82 -197 -174 -428 -92 -231 -173 -433 -180 -450 -7 -16 -19
-47 -27 -68 -14 -37 -14 -37 -25 -15 -12 26 -10 21 -167 443 -63 171 -127 344
-141 385 -15 41 -33 90 -41 108 l-15 32 -389 0 -390 0 19 -47z"/>
</g>
</svg>
